<?xml version="1.0" encoding="UTF-8"?><svg id="svg8514" xmlns="http://www.w3.org/2000/svg" width="83.97" height="72.42" viewBox="0 0 83.97 72.42"><g id="g9117"><g id="g8545"><path id="path8547" d="m1.78,52.77V18.22l13,1.11S30.11.12,43.09,1.89c5.91.81,8.75,4.96,9.75,5.62,1.61,1.07,9.79.29,18.12,1.63,10.31,1.66,12.34,7.86,10.74,13.7-1.61,5.91-6.51,5.04-6.51,5.04,0,0,5.57,3.71,4.46,9.66-.96,5.13-6.69,5.57-6.69,5.57,0,0,4.54,3.98,2.97,8.54-2.41,6.99-10.03,5.2-10.03,5.2,0,0,7.69,9.28-1.97,12.62-9.66,3.34-15.85-1.49-23.32-2.35-20.2-2.32-26.95-13.99-26.95-13.99l-11.89-.37Z" style="fill:#f7cfbe; stroke-width:0px;"/><path id="path8549" d="m1.78,52.77V18.22l13,1.11S30.11.12,43.09,1.89c5.91.81,8.75,4.96,9.75,5.62,1.61,1.07,9.79.29,18.12,1.63,10.31,1.66,12.34,7.86,10.74,13.7-1.61,5.91-6.51,5.04-6.51,5.04,0,0,5.57,3.71,4.46,9.66-.96,5.13-6.69,5.57-6.69,5.57,0,0,4.54,3.98,2.97,8.54-2.41,6.99-10.03,5.2-10.03,5.2,0,0,7.69,9.28-1.97,12.62-9.66,3.34-15.85-1.49-23.32-2.35-20.2-2.32-26.95-13.99-26.95-13.99l-11.89-.37Z" style="stroke:#e16049; stroke-linecap:round; stroke-linejoin:round; stroke-width:3.56px;"/></g><path id="path8551" d="m73.83,27.54s-23.44-8.62-24.95-.41c-1.7,9.25,2.99,12.47,6.64,12.75,4.81.37,18.04,3.58,18.04,3.58,0,0-27.41-8.66-28.65.41-1.29,9.43,6.71,9,10.3,10.3,3.6,1.3,13.11,3.2,13.11,3.2,0,0-15.58-4.06-19.13-4.97-7.58-1.95-15.85,12.27,4.37,14.68l.62,1.65" style="stroke:#e16049; stroke-linecap:round; stroke-linejoin:round; stroke-width:3.56px;"/><g id="g8553"><path id="path8555" d="m34.72,20.94s5.8,2.88,6.3,7.27c2.45,21.51,20.32,16.17,18.03,1.16-3.39-22.3-13.28-26.14-13.28-26.14" style="fill:#f7cfbe; stroke-width:0px;"/><path id="path8557" d="m34.72,20.94s5.8,2.88,6.3,7.27c2.45,21.51,20.32,16.17,18.03,1.16-3.39-22.3-13.28-26.14-13.28-26.14" style="stroke:#e16049; stroke-linecap:round; stroke-linejoin:round; stroke-width:3.56px;"/></g></g></svg>