<?xml version="1.0" encoding="UTF-8"?><svg id="svg8514" xmlns="http://www.w3.org/2000/svg" width="126.09" height="142.44" viewBox="0 0 126.09 142.44"><g id="g4065"><g id="g4010"><path id="path4207" d="m66.38,1.78c-.67-.01-1.33.13-1.95.47-11.53,4.95-22.87,10.39-34.09,16-2.02.64-2.07,2.97-2.54,4.69-2.78,13.51-4.82,27.14-6.75,40.79-.56,3.48.4,6.94.88,10.36,1.54,10.14,3.33,20.23,5,30.35h29.49c-.3-2.62-.52-5.25-.61-7.89-.31-7.03-.87-14.43,2.01-21.04,1.29-2.91,2.96-5.98,5.95-7.41,6.54-3.3,12.05-8.26,17.14-13.46,4.6-4.5,8.44-5.72,11.19-9.38,2.35-5.5-2.32-9.52-8.21-7.61-6.86,2.49-13.42,6.53-20.88,6.83-6.72.1-11.84-6.4-11.95-12.79,9.58-4.3,20.65-6.86,30.88-3.29,6.13,2.06,13.47,3.92,17.35,4.24,2.81.23,5.86-3.03,5.5-5.92,3.38-.89,5.58-6.31-1.02-9.61-7.81-3.9-21.89-9.58-35.42-14.87-.63-.29-1.3-.46-1.96-.47Z" style="fill:#f7cfbe; stroke-width:0px;"/><path id="path4210" d="m66.38,1.78c-.67-.01-1.33.13-1.95.47-11.53,4.95-22.87,10.39-34.09,16-2.02.64-2.07,2.97-2.54,4.69-2.78,13.51-4.82,27.14-6.75,40.79-.56,3.48.4,6.94.88,10.36,1.54,10.14,3.33,20.23,5,30.35h29.49c-.3-2.62-.52-5.25-.61-7.89-.31-7.03-.87-14.43,2.01-21.04,1.29-2.91,2.96-5.98,5.95-7.41,6.54-3.3,12.05-8.26,17.14-13.46,4.6-4.5,8.44-5.72,11.19-9.38,2.35-5.5-2.32-9.52-8.21-7.61-6.86,2.49-13.42,6.53-20.88,6.83-6.72.1-11.84-6.4-11.95-12.79,9.58-4.3,20.65-6.86,30.88-3.29,6.13,2.06,13.47,3.92,17.35,4.24,2.81.23,5.86-3.03,5.5-5.92,3.38-.89,5.58-6.31-1.02-9.61-7.81-3.9-21.89-9.58-35.42-14.87-.63-.29-1.3-.46-1.96-.47Z" style="fill:none; stroke:#e16049; stroke-linecap:round; stroke-linejoin:round; stroke-width:3.55px;"/><path id="path4222" d="m40.52,17.93l28.71-7.04c.57-.14,1.77,0,2.31.2,10.19,3.77,24.06,8.84,31.1,12.65,3.73,2.02,2.1,5.99-.1,7.75-1.88,1.5-4.37,1.12-4.27,1.05" style="fill:none; stroke:#e16049; stroke-linecap:round; stroke-linejoin:round; stroke-width:3.55px;"/></g><g id="g4031"><rect id="rect4016" x="1.96" y="112.67" width="122.17" height="27.81" rx="10.7" ry="10.7" style="fill:#f7e6be; stroke:rgba(225,96,73,.96); stroke-linecap:round; stroke-linejoin:bevel; stroke-width:3.92px;"/><g id="flowRoot4024"><path id="path4127" d="m22.86,119.19h3.81v11.9h6.69v2.88h-10.5v-14.78Z" style="fill:#e3664e; stroke-width:0px;"/><path id="path4129" d="m35.77,119.19h3.81v14.78h-3.81v-14.78Z" style="fill:#e3664e; stroke-width:0px;"/><path id="path4131" d="m42.62,119.19h12.43v2.31l-7.93,9.59h8.16v2.88h-12.88v-2.31l7.93-9.59h-7.7v-2.88Z" style="fill:#e3664e; stroke-width:0px;"/><path id="path4133" d="m67,131.28h-5.96l-.94,2.69h-3.83l5.48-14.78h4.54l5.48,14.78h-3.83l-.93-2.69Zm-5.01-2.74h4.05l-2.02-5.88-2.03,5.88Z" style="fill:#e3664e; stroke-width:0px;"/><path id="path4135" d="m79.13,125.74c.8,0,1.37-.15,1.71-.45.35-.3.52-.79.52-1.47s-.17-1.15-.52-1.45c-.34-.29-.91-.44-1.71-.44h-1.6v3.79h1.6Zm-1.6,2.63v5.59h-3.81v-14.78h5.82c1.95,0,3.37.33,4.28.98.91.65,1.37,1.69,1.37,3.1,0,.98-.24,1.78-.71,2.41-.47.63-1.18,1.09-2.13,1.39.52.12.99.39,1.4.81.42.42.83,1.05,1.26,1.9l2.07,4.2h-4.06l-1.8-3.67c-.36-.74-.73-1.24-1.11-1.51-.37-.27-.86-.41-1.49-.41h-1.08Z" style="fill:#e3664e; stroke-width:0px;"/><path id="path4137" d="m93.13,122.07v9.02h1.37c1.56,0,2.75-.39,3.56-1.16.83-.77,1.24-1.89,1.24-3.37s-.41-2.58-1.23-3.35c-.82-.77-2.01-1.15-3.57-1.15h-1.37Zm-3.81-2.88h4.02c2.24,0,3.91.16,5.01.49,1.1.32,2.05.86,2.83,1.62.69.67,1.21,1.44,1.54,2.31.34.87.5,1.86.5,2.96s-.17,2.11-.5,2.99c-.34.87-.85,1.64-1.54,2.31-.79.77-1.74,1.31-2.85,1.63-1.11.32-2.77.48-4.99.48h-4.02v-14.78Z" style="fill:#e3664e; stroke-width:0px;"/></g></g></g></svg>