<?xml version="1.0" encoding="UTF-8"?><svg id="svg8514" xmlns="http://www.w3.org/2000/svg" width="90.7" height="106.22" viewBox="0 0 90.7 106.22"><g id="g4010"><path id="path4207" d="m47.28,1.78c-.67-.01-1.33.13-1.95.47-11.53,4.95-22.87,10.39-34.09,16-2.02.64-2.07,2.97-2.54,4.69-2.78,13.51-4.82,27.14-6.75,40.79-.56,3.48.4,6.94.88,10.36,1.54,10.14,3.33,20.23,5,30.35h29.49c-.3-2.62-.52-5.25-.61-7.89-.31-7.03-.87-14.43,2.01-21.04,1.29-2.91,2.96-5.98,5.95-7.41,6.54-3.3,12.05-8.26,17.14-13.46,4.6-4.5,8.44-5.72,11.19-9.38,2.35-5.5-2.32-9.52-8.21-7.61-6.86,2.49-13.42,6.53-20.88,6.83-6.72.1-11.84-6.4-11.95-12.79,9.58-4.3,20.65-6.86,30.88-3.29,6.13,2.06,13.47,3.92,17.35,4.24,2.81.23,5.86-3.03,5.5-5.92,3.38-.89,5.58-6.31-1.02-9.61-7.81-3.9-21.89-9.58-35.42-14.87-.63-.29-1.3-.46-1.96-.47Z" style="fill:#f6cebd; stroke:#ea968b; stroke-linecap:round; stroke-linejoin:round; stroke-width:3.56px;"/><path id="path4210" d="m47.28,1.78c-.67-.01-1.33.13-1.95.47-11.53,4.95-22.87,10.39-34.09,16-2.02.64-2.07,2.97-2.54,4.69-2.78,13.51-4.82,27.14-6.75,40.79-.56,3.48.4,6.94.88,10.36,1.54,10.14,3.33,20.23,5,30.35h29.49c-.3-2.62-.52-5.25-.61-7.89-.31-7.03-.87-14.43,2.01-21.04,1.29-2.91,2.96-5.98,5.95-7.41,6.54-3.3,12.05-8.26,17.14-13.46,4.6-4.5,8.44-5.72,11.19-9.38,2.35-5.5-2.32-9.52-8.21-7.61-6.86,2.49-13.42,6.53-20.88,6.83-6.72.1-11.84-6.4-11.95-12.79,9.58-4.3,20.65-6.86,30.88-3.29,6.13,2.06,13.47,3.92,17.35,4.24,2.81.23,5.86-3.03,5.5-5.92,3.38-.89,5.58-6.31-1.02-9.61-7.81-3.9-21.89-9.58-35.42-14.87-.63-.29-1.3-.46-1.96-.47Z" style="fill:#f6cebd; stroke:#ea968b; stroke-linecap:round; stroke-linejoin:round; stroke-width:3.56px;"/><path id="path4222" d="m21.42,17.93l28.71-7.04c.57-.14,1.77,0,2.31.2,10.19,3.77,24.06,8.84,31.1,12.65,3.73,2.02,2.1,5.99-.1,7.75-1.88,1.5-4.37,1.12-4.27,1.05" style="fill:#f6cebd; stroke:#ea968b; stroke-linecap:round; stroke-linejoin:round; stroke-width:3.56px;"/></g></svg>