<?xml version="1.0" encoding="UTF-8"?><svg id="svg8514" xmlns="http://www.w3.org/2000/svg" width="83.28" height="135.36" viewBox="0 0 83.28 135.36"><g id="g9135"><g id="g8559"><path id="path8561" d="m67.07,133.58h-34.55l1.11-13s-16.14-9.58-14.23-22.54c2.51-17.05,4.69-33.76,4.69-33.76,0,0,1.84-35.25,2.37-45.37.74-14.12,13.4-14.08,13.4-1.83,0,17.09.15,21.46-.11,24.86-.37,4.83.6,16.72.6,16.72,0,0,2.75-44.47,2.75-50.52s12.63-11.14,13.37,1.11c1.13,18.67-1.26,50.15-1.26,50.15,0,0,2.62-37.8,4.23-42.35,2.23-6.32,10.96-5.59,10.77,2.6-.37,16.69-2,43.09-2,43.09,0,0,1.63-16.21,2.7-26.38.74-7.06,10.03-11.89,10.4,2.6.21,8.02.49,18.29-.74,28.23-1.55,12.52,1.63,22.62.13,29.35-3.08,13.81-13.26,25.14-13.26,25.14l-.37,11.89Z" style="fill:#f6cebd; stroke:#ea968b; stroke-linecap:round; stroke-linejoin:round; stroke-width:3.56px;"/><path id="path8563" d="m67.07,133.58h-34.55l1.11-13s-16.14-9.58-14.23-22.54c2.51-17.05,4.69-33.76,4.69-33.76,0,0,1.84-35.25,2.37-45.37.74-14.12,13.4-14.08,13.4-1.83,0,17.09.15,21.46-.11,24.86-.37,4.83.6,16.72.6,16.72,0,0,2.75-44.47,2.75-50.52s12.63-11.14,13.37,1.11c1.13,18.67-1.26,50.15-1.26,50.15,0,0,2.62-37.8,4.23-42.35,2.23-6.32,10.96-5.59,10.77,2.6-.37,16.69-2,43.09-2,43.09,0,0,1.63-16.21,2.7-26.38.74-7.06,10.03-11.89,10.4,2.6.21,8.02.49,18.29-.74,28.23-1.55,12.52,1.63,22.62.13,29.35-3.08,13.81-13.26,25.14-13.26,25.14l-.37,11.89Z" style="fill:rgba(246,206,189,0); stroke:#ea968b; stroke-linecap:round; stroke-linejoin:round; stroke-width:3.56px;"/></g><g id="g8565"><path id="path8567" d="m20.9,107.69s-7.06-15.23-9.29-19.32c-2.23-4.09-7.87-18.17-9.29-21.55-2.97-7.06,7.06-10.4,11.52-5.94,4.46,4.46,11.14,17.09,11.14,17.09,0,0,7.67,2.93,10.03,3.71,4.46,1.49,7.43,7.8,7.43,7.8" style="fill:#f6cebd; stroke:#ea968b; stroke-linecap:round; stroke-linejoin:round; stroke-width:3.56px;"/><path id="path8569" d="m20.9,107.69s-7.06-15.23-9.29-19.32c-2.23-4.09-7.87-18.17-9.29-21.55-2.97-7.06,7.06-10.4,11.52-5.94,4.46,4.46,11.14,17.09,11.14,17.09,0,0,7.67,2.93,10.03,3.71,4.46,1.49,7.43,7.8,7.43,7.8" style="fill:rgba(246,206,189,0); stroke:#ea968b; stroke-linecap:round; stroke-linejoin:round; stroke-width:3.56px;"/></g></g></svg>