<?xml version="1.0" encoding="UTF-8"?><svg id="svg8514" xmlns="http://www.w3.org/2000/svg" width="126.09" height="171.58" viewBox="0 0 126.09 171.58"><g id="g4165"><g id="g9135"><g id="g8559"><path id="path8561" d="m79.56,133.57h-34.55l1.11-13s-16.14-9.58-14.23-22.54c2.51-17.05,4.69-33.76,4.69-33.76,0,0,1.84-35.25,2.37-45.37.74-14.12,13.4-14.08,13.4-1.83,0,17.09.15,21.46-.11,24.86-.37,4.83.6,16.72.6,16.72,0,0,2.75-44.47,2.75-50.52s12.63-11.14,13.37,1.11c1.13,18.67-1.26,50.15-1.26,50.15,0,0,2.62-37.8,4.23-42.35,2.23-6.32,10.96-5.59,10.77,2.6-.37,16.69-2,43.09-2,43.09,0,0,1.63-16.21,2.7-26.38.74-7.06,10.03-11.89,10.4,2.6.21,8.02.49,18.29-.74,28.23-1.55,12.52,1.63,22.62.13,29.35-3.08,13.81-13.26,25.14-13.26,25.14l-.37,11.89Z" style="fill:#f7cfbe; stroke-width:0px;"/><path id="path8563" d="m79.56,133.57h-34.55l1.11-13s-16.14-9.58-14.23-22.54c2.51-17.05,4.69-33.76,4.69-33.76,0,0,1.84-35.25,2.37-45.37.74-14.12,13.4-14.08,13.4-1.83,0,17.09.15,21.46-.11,24.86-.37,4.83.6,16.72.6,16.72,0,0,2.75-44.47,2.75-50.52s12.63-11.14,13.37,1.11c1.13,18.67-1.26,50.15-1.26,50.15,0,0,2.62-37.8,4.23-42.35,2.23-6.32,10.96-5.59,10.77,2.6-.37,16.69-2,43.09-2,43.09,0,0,1.63-16.21,2.7-26.38.74-7.06,10.03-11.89,10.4,2.6.21,8.02.49,18.29-.74,28.23-1.55,12.52,1.63,22.62.13,29.35-3.08,13.81-13.26,25.14-13.26,25.14l-.37,11.89Z" style="stroke:#e16049; stroke-linecap:round; stroke-linejoin:round; stroke-width:3.56px;"/></g><g id="g8565"><path id="path8567" d="m33.38,107.69s-7.06-15.23-9.29-19.32c-2.23-4.09-7.87-18.17-9.29-21.55-2.97-7.06,7.06-10.4,11.52-5.94,4.46,4.46,11.14,17.09,11.14,17.09,0,0,7.67,2.93,10.03,3.71,4.46,1.49,7.43,7.8,7.43,7.8" style="fill:#f7cfbe; stroke-width:0px;"/><path id="path8569" d="m33.38,107.69s-7.06-15.23-9.29-19.32c-2.23-4.09-7.87-18.17-9.29-21.55-2.97-7.06,7.06-10.4,11.52-5.94,4.46,4.46,11.14,17.09,11.14,17.09,0,0,7.67,2.93,10.03,3.71,4.46,1.49,7.43,7.8,7.43,7.8" style="stroke:#e16049; stroke-linecap:round; stroke-linejoin:round; stroke-width:3.56px;"/></g></g><rect id="rect9149" x="1.96" y="141.81" width="122.17" height="27.81" rx="10.7" ry="10.7" style="fill:#f7e6be; stroke:rgba(225,96,73,.96); stroke-linecap:round; stroke-linejoin:bevel; stroke-width:3.92px;"/><g id="flowRoot4120"><path id="path4177" d="m27.68,148.33h6.33c1.88,0,3.32.42,4.33,1.26,1.01.83,1.51,2.02,1.51,3.56s-.5,2.75-1.51,3.58c-1,.83-2.45,1.25-4.33,1.25h-2.51v5.13h-3.81v-14.78Zm3.81,2.76v4.13h2.11c.74,0,1.31-.18,1.71-.53.4-.36.6-.87.6-1.53s-.2-1.17-.6-1.52c-.4-.36-.97-.53-1.71-.53h-2.11Z" style="fill:#e3664e; stroke-width:0px;"/><path id="path4179" d="m49.64,160.41h-5.96l-.94,2.69h-3.83l5.48-14.78h4.54l5.48,14.78h-3.83l-.93-2.69Zm-5.01-2.74h4.05l-2.02-5.88-2.03,5.88Z" style="fill:#e3664e; stroke-width:0px;"/><path id="path4181" d="m56.35,148.33h6.33c1.88,0,3.32.42,4.33,1.26,1.01.83,1.51,2.02,1.51,3.56s-.5,2.75-1.51,3.58c-1,.83-2.45,1.25-4.33,1.25h-2.51v5.13h-3.81v-14.78Zm3.81,2.76v4.13h2.11c.74,0,1.31-.18,1.71-.53.4-.36.6-.87.6-1.53s-.2-1.17-.6-1.52-.97-.53-1.71-.53h-2.11Z" style="fill:#e3664e; stroke-width:0px;"/><path id="path4183" d="m71.2,148.33h10.29v2.88h-6.48v2.75h6.09v2.88h-6.09v3.39h6.69v2.88h-10.5v-14.78Z" style="fill:#e3664e; stroke-width:0px;"/><path id="path4185" d="m90.48,154.88c.8,0,1.37-.15,1.71-.45.35-.3.52-.79.52-1.47s-.17-1.15-.52-1.45c-.34-.29-.91-.44-1.71-.44h-1.6v3.79h1.6Zm-1.6,2.63v5.59h-3.81v-14.78h5.82c1.95,0,3.37.33,4.28.98.91.65,1.37,1.69,1.37,3.1,0,.98-.24,1.78-.71,2.41-.47.63-1.18,1.09-2.13,1.39.52.12.99.39,1.4.81.42.42.83,1.05,1.26,1.9l2.07,4.2h-4.06l-1.8-3.67c-.36-.74-.73-1.24-1.11-1.51-.37-.27-.86-.41-1.49-.41h-1.08Z" style="fill:#e3664e; stroke-width:0px;"/></g></g></svg>