<?xml version="1.0" encoding="UTF-8"?><svg id="svg8514" xmlns="http://www.w3.org/2000/svg" width="126.09" height="124.99" viewBox="0 0 126.09 124.99"><g id="g4180"><g id="g9117"><g id="g8545"><path id="path8547" d="m22.03,52.77V18.22l13,1.11S50.36.12,63.34,1.89c5.91.81,8.75,4.96,9.75,5.62,1.61,1.07,9.79.29,18.12,1.63,10.31,1.66,12.34,7.86,10.74,13.7-1.61,5.91-6.51,5.04-6.51,5.04,0,0,5.57,3.71,4.46,9.66-.96,5.13-6.69,5.57-6.69,5.57,0,0,4.54,3.98,2.97,8.54-2.41,6.99-10.03,5.2-10.03,5.2,0,0,7.69,9.28-1.97,12.62-9.66,3.34-15.85-1.49-23.32-2.35-20.2-2.32-26.95-13.99-26.95-13.99l-11.89-.37Z" style="fill:#f7cfbe; stroke-width:0px;"/><path id="path8549" d="m22.03,52.77V18.22l13,1.11S50.36.12,63.34,1.89c5.91.81,8.75,4.96,9.75,5.62,1.61,1.07,9.79.29,18.12,1.63,10.31,1.66,12.34,7.86,10.74,13.7-1.61,5.91-6.51,5.04-6.51,5.04,0,0,5.57,3.71,4.46,9.66-.96,5.13-6.69,5.57-6.69,5.57,0,0,4.54,3.98,2.97,8.54-2.41,6.99-10.03,5.2-10.03,5.2,0,0,7.69,9.28-1.97,12.62-9.66,3.34-15.85-1.49-23.32-2.35-20.2-2.32-26.95-13.99-26.95-13.99l-11.89-.37Z" style="stroke:#e16049; stroke-linecap:round; stroke-linejoin:round; stroke-width:3.56px;"/></g><path id="path8551" d="m94.08,27.54s-23.44-8.62-24.95-.41c-1.7,9.25,2.99,12.47,6.64,12.75,4.81.37,18.04,3.58,18.04,3.58,0,0-27.41-8.66-28.65.41-1.29,9.43,6.71,9,10.3,10.3,3.6,1.3,13.11,3.2,13.11,3.2,0,0-15.58-4.06-19.13-4.97-7.58-1.95-15.85,12.27,4.37,14.68l.62,1.65" style="stroke:#e16049; stroke-linecap:round; stroke-linejoin:round; stroke-width:3.56px;"/><g id="g8553"><path id="path8555" d="m54.97,20.94s5.8,2.88,6.3,7.27c2.45,21.51,20.32,16.17,18.03,1.16-3.39-22.3-13.28-26.14-13.28-26.14" style="fill:#f7cfbe; stroke-width:0px;"/><path id="path8557" d="m54.97,20.94s5.8,2.88,6.3,7.27c2.45,21.51,20.32,16.17,18.03,1.16-3.39-22.3-13.28-26.14-13.28-26.14" style="stroke:#e16049; stroke-linecap:round; stroke-linejoin:round; stroke-width:3.56px;"/></g></g><rect id="rect9161" x="1.96" y="95.22" width="122.17" height="27.81" rx="10.7" ry="10.7" style="fill:#f7e6be; stroke:rgba(225,96,73,.96); stroke-linecap:round; stroke-linejoin:bevel; stroke-width:3.92px;"/><g id="flowRoot4128"><path id="path4168" d="m37.37,108.28c.8,0,1.37-.15,1.71-.45.35-.3.52-.79.52-1.47s-.17-1.15-.52-1.45c-.34-.29-.91-.44-1.71-.44h-1.6v3.79h1.6Zm-1.6,2.63v5.59h-3.81v-14.78h5.82c1.95,0,3.37.33,4.28.98.91.65,1.37,1.69,1.37,3.1,0,.98-.24,1.78-.71,2.41-.47.63-1.18,1.09-2.13,1.39.52.12.99.39,1.4.81.42.42.83,1.05,1.26,1.9l2.07,4.2h-4.06l-1.8-3.67c-.36-.74-.73-1.24-1.11-1.51-.37-.27-.86-.41-1.49-.41h-1.08Z" style="fill:#e3664e; stroke-width:0px;"/><path id="path4170" d="m54.31,104.22c-1.16,0-2.06.43-2.7,1.29-.64.86-.96,2.07-.96,3.62s.32,2.76.96,3.61c.64.86,1.54,1.29,2.7,1.29s2.07-.43,2.71-1.29c.64-.86.96-2.06.96-3.61s-.32-2.77-.96-3.62c-.64-.86-1.54-1.29-2.71-1.29Zm0-2.76c2.38,0,4.24.68,5.58,2.04,1.35,1.36,2.02,3.24,2.02,5.63s-.67,4.26-2.02,5.62c-1.35,1.36-3.21,2.04-5.58,2.04-2.37,0-4.23-.68-5.58-2.04-1.35-1.36-2.02-3.23-2.02-5.62s.67-4.27,2.02-5.63c1.35-1.36,3.21-2.04,5.58-2.04Z" style="fill:#e3664e; stroke-width:0px;"/><path id="path4172" d="m76.51,115.7c-.7.36-1.43.64-2.19.82-.76.18-1.55.28-2.38.28-2.46,0-4.41-.69-5.85-2.06-1.44-1.38-2.16-3.25-2.16-5.6s.72-4.23,2.16-5.6c1.44-1.38,3.39-2.07,5.85-2.07.83,0,1.62.09,2.38.28s1.49.46,2.19.82v3.06c-.71-.48-1.4-.84-2.09-1.06-.69-.22-1.41-.34-2.17-.34-1.36,0-2.43.44-3.21,1.31-.78.87-1.17,2.07-1.17,3.6s.39,2.72,1.17,3.59c.78.87,1.85,1.31,3.21,1.31.76,0,1.48-.11,2.17-.34.69-.22,1.38-.58,2.09-1.06v3.06Z" style="fill:#e3664e; stroke-width:0px;"/><path id="path4174" d="m79.68,101.73h3.81v5.4l5.5-5.4h4.43l-7.12,7,7.85,7.78h-4.77l-5.88-5.82v5.82h-3.81v-14.78Z" style="fill:#e3664e; stroke-width:0px;"/></g></g></svg>