<?xml version="1.0" encoding="UTF-8"?><svg id="svg8514" xmlns="http://www.w3.org/2000/svg" width="132.53" height="119.67" viewBox="0 0 132.53 119.67"><g id="g4125"><g id="g9126"><g id="g8531"><path id="path8533" d="m1.78,47.36V12.81l13,1.11S31.94.05,44.9,1.96c17.05,2.51,26.18,2.42,26.18,2.42,0,0,34.42-2.03,44.55-2.22,12.36-.23,14.19,13.58,2.02,14.96-16.14,1.83-46.75,4.52-46.75,4.52,6.07,2.4,39.08,10.74,46.75,12.61,13.25,3.23,9.32,16.66-.36,15.42-14.7-1.88-42.38-11.97-42.38-11.97,0,0,4.54,3.98,2.97,8.54-2.41,6.99-10.03,5.2-10.03,5.2,0,0,4.19,7.36-5.46,10.71-9.66,3.34-14.45,1.35-21.76-.43-13.74-3.34-26.95-13.99-26.95-13.99l-11.89-.37Z" style="fill:#f7cfbe; stroke-width:0px;"/><path id="path8535" d="m1.78,47.36V12.81l13,1.11S31.94.05,44.9,1.96c17.05,2.51,26.18,2.42,26.18,2.42,0,0,34.42-2.03,44.55-2.22,12.36-.23,14.19,13.58,2.02,14.96-16.14,1.83-46.75,4.52-46.75,4.52,6.07,2.4,39.08,10.74,46.75,12.61,13.25,3.23,9.32,16.66-.36,15.42-14.7-1.88-42.38-11.97-42.38-11.97,0,0,4.54,3.98,2.97,8.54-2.41,6.99-10.03,5.2-10.03,5.2,0,0,4.19,7.36-5.46,10.71-9.66,3.34-14.45,1.35-21.76-.43-13.74-3.34-26.95-13.99-26.95-13.99l-11.89-.37Z" style="stroke:#e16049; stroke-linecap:round; stroke-linejoin:round; stroke-width:3.56px;"/></g><path id="path8537" d="m74.9,37.7s-24.03-12.26-27.37-3.34c-3.34,8.92,3.34,8.92,6.69,10.77,3.34,1.86,13.63,6.32,13.63,6.32,0,0-16.36-7.95-20.01-8.25-5.4-.45-7.34,6.1-5.11,8.7,2.23,2.6,9.66,5.57,9.66,5.57l1.83,2.55" style="stroke:#e16049; stroke-linecap:round; stroke-linejoin:round; stroke-width:3.56px;"/><g id="g8539"><path id="path8541" d="m34.72,15.53s5.58,2.91,6.3,7.27c2.42,14.54,19.25,15.98,16.97.97C54.59,1.47,43.93,2.44,43.93,2.44" style="fill:#f7cfbe; stroke-width:0px;"/><path id="path8543" d="m34.72,15.53s5.58,2.91,6.3,7.27c2.42,14.54,19.25,15.98,16.97.97C54.59,1.47,43.93,2.44,43.93,2.44" style="stroke:#e16049; stroke-linecap:round; stroke-linejoin:round; stroke-width:3.56px;"/></g></g><rect id="rect9155" x="8.39" y="89.9" width="122.17" height="27.81" rx="10.7" ry="10.7" style="fill:#f7e6be; stroke:rgba(225,96,73,.96); stroke-linecap:round; stroke-linejoin:bevel; stroke-width:3.92px;"/><g id="flowRoot4136"><path id="path4151" d="m27.76,96.87v3.13c-.81-.36-1.6-.64-2.38-.82-.77-.18-1.5-.28-2.19-.28-.91,0-1.58.13-2.02.38-.44.25-.65.64-.65,1.17,0,.4.15.71.44.93.3.22.83.41,1.6.56l1.62.33c1.64.33,2.81.83,3.5,1.5.69.67,1.04,1.63,1.04,2.87,0,1.63-.49,2.84-1.46,3.64-.96.79-2.44,1.19-4.43,1.19-.94,0-1.88-.09-2.82-.27s-1.89-.44-2.83-.79v-3.22c.94.5,1.85.88,2.73,1.14.88.25,1.74.38,2.55.38s1.47-.14,1.91-.42c.44-.28.66-.67.66-1.19,0-.46-.15-.82-.46-1.07-.3-.25-.89-.48-1.79-.67l-1.48-.33c-1.48-.32-2.56-.82-3.25-1.51-.68-.69-1.02-1.63-1.02-2.8,0-1.47.48-2.6,1.43-3.4.95-.79,2.32-1.19,4.1-1.19.81,0,1.65.06,2.5.19.86.12,1.75.3,2.66.54h0Z" style="fill:#e3664e; stroke-width:0px;"/><path id="path4153" d="m43.09,110.37c-.7.36-1.43.64-2.19.82-.76.18-1.55.28-2.38.28-2.46,0-4.41-.69-5.85-2.06-1.44-1.38-2.16-3.25-2.16-5.6s.72-4.23,2.16-5.6c1.44-1.38,3.39-2.07,5.85-2.07.83,0,1.62.09,2.38.28s1.49.46,2.19.82v3.06c-.71-.48-1.4-.84-2.09-1.06-.69-.22-1.41-.34-2.17-.34-1.36,0-2.43.44-3.21,1.31-.78.87-1.17,2.07-1.17,3.6s.39,2.72,1.17,3.59c.78.87,1.85,1.31,3.21,1.31.76,0,1.48-.11,2.17-.34.69-.22,1.38-.58,2.09-1.06v3.06Z" style="fill:#e3664e; stroke-width:0px;"/><path id="path4155" d="m45.53,96.4h3.81v14.78h-3.81v-14.78Z" style="fill:#e3664e; stroke-width:0px;"/><path id="path4157" d="m62.66,96.87v3.13c-.81-.36-1.6-.64-2.38-.82-.77-.18-1.5-.28-2.19-.28-.91,0-1.58.13-2.02.38-.44.25-.65.64-.65,1.17,0,.4.15.71.44.93.3.22.83.41,1.6.56l1.62.33c1.64.33,2.81.83,3.5,1.5.69.67,1.04,1.63,1.04,2.87,0,1.63-.49,2.84-1.46,3.64-.96.79-2.44,1.19-4.43,1.19-.94,0-1.88-.09-2.82-.27s-1.89-.44-2.83-.79v-3.22c.94.5,1.85.88,2.73,1.14.88.25,1.74.38,2.55.38s1.47-.14,1.91-.42c.44-.28.66-.67.66-1.19,0-.46-.15-.82-.46-1.07-.3-.25-.89-.48-1.79-.67l-1.48-.33c-1.48-.32-2.56-.82-3.25-1.51-.68-.69-1.02-1.63-1.02-2.8,0-1.47.48-2.6,1.43-3.4.95-.79,2.32-1.19,4.1-1.19.81,0,1.65.06,2.5.19.86.12,1.75.3,2.66.54h0Z" style="fill:#e3664e; stroke-width:0px;"/><path id="path4159" d="m75.64,96.87v3.13c-.81-.36-1.6-.64-2.38-.82-.77-.18-1.5-.28-2.19-.28-.91,0-1.58.13-2.02.38-.44.25-.65.64-.65,1.17,0,.4.15.71.44.93.3.22.83.41,1.6.56l1.62.33c1.64.33,2.81.83,3.5,1.5.69.67,1.04,1.63,1.04,2.87,0,1.63-.49,2.84-1.46,3.64-.96.79-2.44,1.19-4.43,1.19-.94,0-1.88-.09-2.82-.27s-1.89-.44-2.83-.79v-3.22c.94.5,1.85.88,2.73,1.14.88.25,1.74.38,2.55.38s1.47-.14,1.91-.42c.44-.28.66-.67.66-1.19,0-.46-.15-.82-.46-1.07-.3-.25-.89-.48-1.79-.67l-1.48-.33c-1.48-.32-2.56-.82-3.25-1.51-.68-.69-1.02-1.63-1.02-2.8,0-1.47.48-2.6,1.43-3.4.95-.79,2.32-1.19,4.1-1.19.81,0,1.65.06,2.5.19.86.12,1.75.3,2.66.54h0Z" style="fill:#e3664e; stroke-width:0px;"/><path id="path4161" d="m86,98.9c-1.16,0-2.06.43-2.7,1.29-.64.86-.96,2.07-.96,3.62s.32,2.76.96,3.61c.64.86,1.54,1.29,2.7,1.29s2.07-.43,2.71-1.29c.64-.86.96-2.06.96-3.61s-.32-2.77-.96-3.62c-.64-.86-1.54-1.29-2.71-1.29Zm0-2.76c2.38,0,4.24.68,5.58,2.04,1.35,1.36,2.02,3.24,2.02,5.63s-.67,4.26-2.02,5.62-3.21,2.04-5.58,2.04c-2.37,0-4.23-.68-5.58-2.04-1.35-1.36-2.02-3.23-2.02-5.62s.67-4.27,2.02-5.63c1.35-1.36,3.21-2.04,5.58-2.04Z" style="fill:#e3664e; stroke-width:0px;"/><path id="path4163" d="m101.17,102.96c.8,0,1.37-.15,1.71-.45.35-.3.52-.79.52-1.47s-.17-1.15-.52-1.45c-.34-.29-.91-.44-1.71-.44h-1.6v3.79h1.6Zm-1.6,2.63v5.59h-3.81v-14.78h5.82c1.95,0,3.37.33,4.28.98.91.65,1.37,1.69,1.37,3.1,0,.98-.24,1.78-.71,2.41-.47.63-1.18,1.09-2.13,1.39.52.12.99.39,1.4.81.42.42.83,1.05,1.26,1.9l2.07,4.2h-4.06l-1.8-3.67c-.36-.74-.73-1.24-1.11-1.51-.37-.27-.86-.41-1.49-.41h-1.08Z" style="fill:#e3664e; stroke-width:0px;"/><path id="path4165" d="m120.92,96.87v3.13c-.81-.36-1.6-.64-2.38-.82-.77-.18-1.5-.28-2.19-.28-.91,0-1.58.13-2.02.38-.44.25-.65.64-.65,1.17,0,.4.15.71.44.93.3.22.83.41,1.6.56l1.62.33c1.64.33,2.81.83,3.5,1.5.69.67,1.04,1.63,1.04,2.87,0,1.63-.49,2.84-1.46,3.64-.96.79-2.44,1.19-4.43,1.19-.94,0-1.88-.09-2.82-.27s-1.89-.44-2.83-.79v-3.22c.94.5,1.85.88,2.73,1.14.88.25,1.74.38,2.55.38s1.47-.14,1.91-.42c.44-.28.66-.67.66-1.19,0-.46-.15-.82-.46-1.07-.3-.25-.89-.48-1.79-.67l-1.48-.33c-1.48-.32-2.56-.82-3.25-1.51-.68-.69-1.02-1.63-1.02-2.8,0-1.47.48-2.6,1.43-3.4.95-.79,2.32-1.19,4.1-1.19.81,0,1.65.06,2.5.19.86.12,1.75.3,2.66.54h0Z" style="fill:#e3664e; stroke-width:0px;"/></g></g></svg>