<?xml version="1.0" encoding="UTF-8"?><svg id="svg8514" xmlns="http://www.w3.org/2000/svg" width="127.92" height="65.74" viewBox="0 0 127.92 65.74"><g id="g9126"><g id="g8531"><path id="path8533" d="m1.78,47.36V12.81l13,1.11S31.94.05,44.9,1.96c17.05,2.51,26.18,2.42,26.18,2.42,0,0,34.42-2.03,44.55-2.22,12.36-.23,14.19,13.58,2.02,14.96-16.14,1.83-46.75,4.52-46.75,4.52,6.07,2.4,39.08,10.74,46.75,12.61,13.25,3.23,9.32,16.66-.36,15.42-14.7-1.88-42.38-11.97-42.38-11.97,0,0,4.54,3.98,2.97,8.54-2.41,6.99-10.03,5.2-10.03,5.2,0,0,4.19,7.36-5.46,10.71-9.66,3.34-14.45,1.35-21.76-.43-13.74-3.34-26.95-13.99-26.95-13.99l-11.89-.37Z" style="fill:#f6cebd; stroke:#ea968b; stroke-linecap:round; stroke-linejoin:round; stroke-width:3.56px;"/><path id="path8535" d="m1.78,47.36V12.81l13,1.11S31.94.05,44.9,1.96c17.05,2.51,26.18,2.42,26.18,2.42,0,0,34.42-2.03,44.55-2.22,12.36-.23,14.19,13.58,2.02,14.96-16.14,1.83-46.75,4.52-46.75,4.52,6.07,2.4,39.08,10.74,46.75,12.61,13.25,3.23,9.32,16.66-.36,15.42-14.7-1.88-42.38-11.97-42.38-11.97,0,0,4.54,3.98,2.97,8.54-2.41,6.99-10.03,5.2-10.03,5.2,0,0,4.19,7.36-5.46,10.71-9.66,3.34-14.45,1.35-21.76-.43-13.74-3.34-26.95-13.99-26.95-13.99l-11.89-.37Z" style="fill:rgba(246,206,189,0); stroke:#ea968b; stroke-linecap:round; stroke-linejoin:round; stroke-width:3.56px;"/></g><path id="path8537" d="m74.91,37.7s-24.03-12.26-27.37-3.34c-3.34,8.92,3.34,8.92,6.69,10.77,3.34,1.86,13.63,6.32,13.63,6.32,0,0-16.36-7.95-20.01-8.25-5.4-.45-7.34,6.1-5.11,8.7,2.23,2.6,9.66,5.57,9.66,5.57l1.83,2.55" style="fill:rgba(246,206,189,0); stroke:#ea968b; stroke-linecap:round; stroke-linejoin:round; stroke-width:3.56px;"/><g id="g8539"><path id="path8541" d="m34.72,15.53s5.58,2.91,6.3,7.27c2.42,14.54,19.25,15.98,16.97.97C54.6,1.48,43.93,2.45,43.93,2.45" style="fill:#f6cebd; stroke:#ea968b; stroke-linecap:round; stroke-linejoin:round; stroke-width:3.56px;"/><path id="path8543" d="m34.72,15.53s5.58,2.91,6.3,7.27c2.42,14.54,19.25,15.98,16.97.97C54.6,1.48,43.93,2.45,43.93,2.45" style="fill:rgba(246,206,189,0); stroke:#ea968b; stroke-linecap:round; stroke-linejoin:round; stroke-width:3.56px;"/></g></g></svg>