<?xml version="1.0" encoding="UTF-8"?><svg id="svg8514" xmlns="http://www.w3.org/2000/svg" width="126.09" height="172.08" viewBox="0 0 126.09 172.08"><g id="g4079"><g id="g4005"><g id="g3997"><path id="path4014" d="m79.56,134.07h-34.55l1.11-13s-16.14-9.58-14.23-22.54c2.51-17.05,4.69-33.76,4.69-33.76,0,0-8.26-37.98-7.73-48.1,0-11.28,12.63-9.88,14.01-3.09,3.35,16.55,9.98,45.57,9.98,45.57,0,0-7.14-44.47-7.14-50.52s11.17-12.34,13.37,1.11c2.2,13.46,8.63,50.15,8.63,50.15,0,0,6.43-37.8,8.03-42.35,2.23-6.32,10.96-5.59,10.77,2.6-.37,16.69-5.81,43.09-5.81,43.09,0,0,5.22-21.34,6.8-29.64,1.58-8.31,11.23-4.42,10.7.67s-3.91,23.49-5.14,33.43c-1.55,12.52,1.63,22.62.13,29.35-3.08,13.81-13.26,25.14-13.26,25.14l-.37,11.89Z" style="fill:#f7cfbe; stroke-width:0px;"/><path id="path3995" d="m79.56,134.07h-34.55l1.11-13s-16.14-9.58-14.23-22.54c2.51-17.05,4.69-33.76,4.69-33.76,0,0-8.26-37.98-7.73-48.1,0-11.28,12.63-9.88,14.01-3.09,3.35,16.55,9.98,45.57,9.98,45.57,0,0-7.14-44.47-7.14-50.52s11.17-12.34,13.37,1.11c2.2,13.46,8.63,50.15,8.63,50.15,0,0,6.43-37.8,8.03-42.35,2.23-6.32,10.96-5.59,10.77,2.6-.37,16.69-5.81,43.09-5.81,43.09,0,0,5.22-21.34,6.8-29.64,1.58-8.31,11.23-4.42,10.7.67s-3.91,23.49-5.14,33.43c-1.55,12.52,1.63,22.62.13,29.35-3.08,13.81-13.26,25.14-13.26,25.14l-.37,11.89Z" style="stroke:#e16049; stroke-linecap:round; stroke-linejoin:round; stroke-width:3.56px;"/></g><g id="g4003"><path id="path3999" d="m33.38,108.18s-7.06-15.23-9.29-19.32c-2.23-4.09-7.87-18.17-9.29-21.55-2.97-7.06,7.06-10.4,11.52-5.94,4.46,4.46,11.14,17.09,11.14,17.09,0,0,7.67,2.93,10.03,3.71,4.46,1.49,7.43,7.8,7.43,7.8" style="fill:#f7cfbe; stroke-width:0px;"/><path id="path4001" d="m33.38,108.18s-7.06-15.23-9.29-19.32c-2.23-4.09-7.87-18.17-9.29-21.55-2.97-7.06,7.06-10.4,11.52-5.94,4.46,4.46,11.14,17.09,11.14,17.09,0,0,7.67,2.93,10.03,3.71,4.46,1.49,7.43,7.8,7.43,7.8" style="stroke:#e16049; stroke-linecap:round; stroke-linejoin:round; stroke-width:3.56px;"/></g></g><rect id="rect4007" x="1.96" y="142.31" width="122.17" height="27.81" rx="10.7" ry="10.7" style="fill:#f7e6be; stroke:rgba(225,96,73,.96); stroke-linecap:round; stroke-linejoin:bevel; stroke-width:3.92px;"/><g id="flowRoot4021"><path id="path4140" d="m35.51,149.28v3.13c-.81-.36-1.6-.64-2.38-.82-.77-.18-1.5-.28-2.19-.28-.91,0-1.58.13-2.02.38-.44.25-.65.64-.65,1.17,0,.4.15.71.44.93.3.22.83.41,1.6.56l1.62.33c1.64.33,2.81.83,3.5,1.5.69.67,1.04,1.63,1.04,2.87,0,1.63-.49,2.84-1.46,3.64-.96.79-2.44,1.19-4.43,1.19-.94,0-1.88-.09-2.82-.27s-1.89-.44-2.83-.79v-3.22c.94.5,1.85.88,2.73,1.14.88.25,1.74.38,2.55.38s1.47-.14,1.91-.42c.44-.28.66-.67.66-1.19,0-.46-.15-.82-.46-1.07-.3-.25-.89-.48-1.79-.67l-1.48-.33c-1.48-.32-2.56-.82-3.25-1.51-.68-.69-1.02-1.63-1.02-2.8,0-1.47.48-2.6,1.43-3.4.95-.79,2.32-1.19,4.1-1.19.81,0,1.65.06,2.5.19.86.12,1.75.3,2.66.54h0Z" style="fill:#e3664e; stroke-width:0px;"/><path id="path4142" d="m39.84,148.81h6.33c1.88,0,3.32.42,4.33,1.26,1.01.83,1.51,2.02,1.51,3.56s-.5,2.75-1.51,3.58c-1,.83-2.45,1.25-4.33,1.25h-2.51v5.13h-3.81v-14.78Zm3.81,2.76v4.13h2.11c.74,0,1.31-.18,1.71-.53.4-.36.6-.87.6-1.53s-.2-1.17-.6-1.52c-.4-.36-.97-.53-1.71-.53h-2.11Z" style="fill:#e3664e; stroke-width:0px;"/><path id="path4144" d="m61.44,151.31c-1.16,0-2.06.43-2.7,1.29-.64.86-.96,2.07-.96,3.62s.32,2.76.96,3.61c.64.86,1.54,1.29,2.7,1.29s2.07-.43,2.71-1.29c.64-.86.96-2.06.96-3.61s-.32-2.77-.96-3.62c-.64-.86-1.54-1.29-2.71-1.29Zm0-2.76c2.38,0,4.24.68,5.58,2.04,1.35,1.36,2.02,3.24,2.02,5.63s-.67,4.26-2.02,5.62-3.21,2.04-5.58,2.04c-2.37,0-4.23-.68-5.58-2.04-1.35-1.36-2.02-3.23-2.02-5.62s.67-4.27,2.02-5.63c1.35-1.36,3.21-2.04,5.58-2.04Z" style="fill:#e3664e; stroke-width:0px;"/><path id="path4146" d="m83.64,162.78c-.7.36-1.43.64-2.19.82-.76.18-1.55.28-2.38.28-2.46,0-4.41-.69-5.85-2.06-1.44-1.38-2.16-3.25-2.16-5.6s.72-4.23,2.16-5.6c1.44-1.38,3.39-2.07,5.85-2.07.83,0,1.62.09,2.38.28s1.49.46,2.19.82v3.06c-.71-.48-1.4-.84-2.09-1.06-.69-.22-1.41-.34-2.17-.34-1.36,0-2.43.44-3.21,1.31-.78.87-1.17,2.07-1.17,3.6s.39,2.72,1.17,3.59c.78.87,1.85,1.31,3.21,1.31.76,0,1.48-.11,2.17-.34.69-.22,1.38-.58,2.09-1.06v3.06Z" style="fill:#e3664e; stroke-width:0px;"/><path id="path4148" d="m86.81,148.81h3.81v5.4l5.5-5.4h4.43l-7.12,7,7.85,7.78h-4.77l-5.88-5.82v5.82h-3.81v-14.78Z" style="fill:#e3664e; stroke-width:0px;"/></g></g></svg>