<?xml version="1.0" encoding="UTF-8"?><svg id="svg8514" xmlns="http://www.w3.org/2000/svg" width="87.52" height="135.85" viewBox="0 0 87.52 135.85"><g id="g4005"><g id="g3997"><path id="path4014" d="m67.07,134.07h-34.55l1.11-13s-16.14-9.58-14.23-22.54c2.51-17.05,4.69-33.76,4.69-33.76,0,0-8.26-37.98-7.73-48.1,0-11.28,12.63-9.88,14.01-3.09,3.35,16.55,9.98,45.57,9.98,45.57,0,0-7.14-44.47-7.14-50.52s11.17-12.34,13.37,1.11c2.2,13.46,8.63,50.15,8.63,50.15,0,0,6.43-37.8,8.03-42.35,2.23-6.32,10.96-5.59,10.77,2.6-.37,16.69-5.81,43.09-5.81,43.09,0,0,5.22-21.34,6.8-29.64,1.58-8.31,11.23-4.42,10.7.67s-3.91,23.49-5.14,33.43c-1.55,12.52,1.63,22.62.13,29.35-3.08,13.81-13.26,25.14-13.26,25.14l-.37,11.89Z" style="fill:#f6cebd; stroke:#ea968b; stroke-linecap:round; stroke-linejoin:round; stroke-width:3.56px;"/><path id="path3995" d="m67.07,134.07h-34.55l1.11-13s-16.14-9.58-14.23-22.54c2.51-17.05,4.69-33.76,4.69-33.76,0,0-8.26-37.98-7.73-48.1,0-11.28,12.63-9.88,14.01-3.09,3.35,16.55,9.98,45.57,9.98,45.57,0,0-7.14-44.47-7.14-50.52s11.17-12.34,13.37,1.11c2.2,13.46,8.63,50.15,8.63,50.15,0,0,6.43-37.8,8.03-42.35,2.23-6.32,10.96-5.59,10.77,2.6-.37,16.69-5.81,43.09-5.81,43.09,0,0,5.22-21.34,6.8-29.64,1.58-8.31,11.23-4.42,10.7.67s-3.91,23.49-5.14,33.43c-1.55,12.52,1.63,22.62.13,29.35-3.08,13.81-13.26,25.14-13.26,25.14l-.37,11.89Z" style="fill:rgba(246,206,189,0); stroke:#ea968b; stroke-linecap:round; stroke-linejoin:round; stroke-width:3.56px;"/></g><g id="g4003"><path id="path3999" d="m20.9,108.19s-7.06-15.23-9.29-19.32c-2.23-4.09-7.87-18.17-9.29-21.55-2.97-7.06,7.06-10.4,11.52-5.94,4.46,4.46,11.14,17.09,11.14,17.09,0,0,7.67,2.93,10.03,3.71,4.46,1.49,7.43,7.8,7.43,7.8" style="fill:#f6cebd; stroke:#ea968b; stroke-linecap:round; stroke-linejoin:round; stroke-width:3.56px;"/><path id="path4001" d="m20.9,108.19s-7.06-15.23-9.29-19.32c-2.23-4.09-7.87-18.17-9.29-21.55-2.97-7.06,7.06-10.4,11.52-5.94,4.46,4.46,11.14,17.09,11.14,17.09,0,0,7.67,2.93,10.03,3.71,4.46,1.49,7.43,7.8,7.43,7.8" style="fill:rgba(246,206,189,0); stroke:#ea968b; stroke-linecap:round; stroke-linejoin:round; stroke-width:3.56px;"/></g></g></svg>